<svg>
  <symbol id="arrow" viewBox="0 0 11.466 17.35">
    <g id="right-chevron" transform="translate(11.466 16.795) rotate(177)">
      <path id="Path_23" data-name="Path 23" d="M10.2,7.437,3.163.41A1.283,1.283,0,0,0,2.192,0,1.283,1.283,0,0,0,1.22.41L.4,1.22a1.322,1.322,0,0,0-.4.971,1.382,1.382,0,0,0,.4.982L5.646,8.409.4,13.655a1.322,1.322,0,0,0-.4.971,1.382,1.382,0,0,0,.4.982l.82.81a1.323,1.323,0,0,0,.972.4,1.322,1.322,0,0,0,.972-.4L10.2,9.391a1.382,1.382,0,0,0,.4-.982A1.322,1.322,0,0,0,10.2,7.437Z" transform="translate(0 0)" fill="#fff"/>
    </g>
  </svg>
</svg>
